<svg width="25" height="22" viewBox="0 0 25 22" fill="none" xmlns="http://www.w3.org/2000/svg">
<path d="M19.0151 11.4841C19.1549 11.3559 19.2329 11.1851 19.2328 11.0074C19.2326 10.8297 19.1544 10.659 19.0144 10.531L15.018 6.88012C14.5302 6.43415 13.6743 6.73874 13.6748 7.35767L13.6763 9.46411C13.6764 9.5097 13.6558 9.55345 13.6192 9.58572C13.5826 9.61799 13.533 9.63614 13.4812 9.63617L5.86532 9.64171C5.65816 9.64186 5.45953 9.71445 5.31314 9.84353C5.16674 9.97261 5.08458 10.1476 5.08471 10.33L5.08571 11.7054C5.08584 11.8878 5.16826 12.0626 5.31484 12.1915C5.46142 12.3204 5.66015 12.3927 5.86732 12.3925L13.4832 12.387C13.535 12.387 13.5846 12.405 13.6213 12.4372C13.6579 12.4695 13.6785 12.5132 13.6786 12.5588L13.6801 14.6652C13.6805 15.2841 14.5369 15.5875 15.024 15.1408L19.0151 11.4841Z" fill="#070D2E"/>
<path d="M24.2175 4.12675C24.2171 3.6752 24.1158 3.22814 23.9192 2.8111C23.7226 2.39406 23.4347 2.01521 23.0718 1.69618C22.3389 1.05187 21.3452 0.690317 20.3094 0.691069L4.68715 0.702415C3.65133 0.703168 2.6582 1.06616 1.92623 1.71154C1.5638 2.0311 1.27639 2.41037 1.08042 2.82769C0.884451 3.24501 0.783755 3.69222 0.784083 4.14377L0.794073 17.8978C0.794735 18.8098 1.20685 19.6841 1.93975 20.3284C2.67266 20.9727 3.66631 21.3343 4.70213 21.3335L20.3244 21.3222C20.8373 21.3218 21.3451 21.2325 21.8188 21.0593C22.2925 20.8862 22.7229 20.6326 23.0853 20.313C23.4477 19.9935 23.7351 19.6142 23.9311 19.1969C24.1271 18.7796 24.2278 18.3324 24.2275 17.8808L24.2175 4.12675ZM20.3104 2.06648C20.9319 2.06602 21.5281 2.28295 21.9678 2.66954C22.4076 3.05613 22.6548 3.58071 22.6552 4.12788L22.6652 17.882C22.6656 18.4291 22.4191 18.9541 21.9799 19.3413C21.5408 19.7285 20.9449 19.9463 20.3234 19.9468L4.70113 19.9581C4.07964 19.9586 3.48345 19.7416 3.04371 19.355C2.60396 18.9685 2.3567 18.4439 2.3563 17.8967L2.34631 4.14263C2.34591 3.59546 2.59242 3.07052 3.0316 2.6833C3.47078 2.29607 4.06666 2.07827 4.68815 2.07782L20.3104 2.06648Z" fill="#070D2E"/>
</svg>
