<svg width="26" height="30" viewBox="0 0 26 30" fill="none" xmlns="http://www.w3.org/2000/svg">
<path fill-rule="evenodd" clip-rule="evenodd" d="M17 0.666748H11.592C9.14133 0.666748 7.2 0.666748 5.68133 0.870748C4.11867 1.08141 2.85333 1.52408 1.85467 2.52141C0.857334 3.52008 0.414667 4.78541 0.204 6.34808C2.58287e-07 7.86808 1.00961e-07 9.80808 1.00961e-07 12.2587V20.3334C-0.000239187 21.5247 0.424879 22.677 1.1988 23.5826C1.97271 24.4883 3.04457 25.0879 4.22133 25.2734C4.404 26.2921 4.75733 27.1614 5.464 27.8694C6.26667 28.6721 7.27733 29.0161 8.47733 29.1787C9.63333 29.3334 11.104 29.3334 12.9267 29.3334H17.0733C18.896 29.3334 20.3667 29.3334 21.5227 29.1787C22.7227 29.0161 23.7333 28.6721 24.536 27.8694C25.3387 27.0667 25.6827 26.0561 25.8453 24.8561C26 23.7001 26 22.2294 26 20.4067V13.5934C26 11.7707 26 10.3001 25.8453 9.14408C25.6827 7.94408 25.3387 6.93341 24.536 6.13075C23.828 5.42408 22.9587 5.07075 21.94 4.88808C21.7545 3.71132 21.1549 2.63946 20.2492 1.86554C19.3435 1.09163 18.1913 0.666509 17 0.666748ZM19.84 4.69475C19.6373 4.10275 19.2545 3.58896 18.7452 3.22532C18.236 2.86167 17.6258 2.66637 17 2.66675H11.6667C9.124 2.66675 7.31867 2.66942 5.94667 2.85342C4.60667 3.03342 3.83333 3.37208 3.26933 3.93608C2.70533 4.50008 2.36667 5.27341 2.18667 6.61341C2.00267 7.98542 2 9.79075 2 12.3334V20.3334C1.99962 20.9592 2.19492 21.5694 2.55857 22.0786C2.92221 22.5879 3.436 22.9707 4.028 23.1734C4 22.3601 4 21.4401 4 20.4067V13.5934C4 11.7707 4 10.3001 4.156 9.14408C4.316 7.94408 4.66267 6.93341 5.464 6.13075C6.26667 5.32808 7.27733 4.98408 8.47733 4.82275C9.63333 4.66675 11.104 4.66675 12.9267 4.66675H17.0733C18.1067 4.66675 19.0267 4.66675 19.84 4.69475ZM6.87733 7.54675C7.24667 7.17741 7.764 6.93742 8.744 6.80542C9.74933 6.67075 11.0853 6.66808 12.9987 6.66808H16.9987C18.912 6.66808 20.2467 6.67075 21.2547 6.80542C22.2333 6.93742 22.7507 7.17875 23.12 7.54675C23.4893 7.91608 23.7293 8.43341 23.8613 9.41341C23.996 10.4187 23.9987 11.7547 23.9987 13.6681V20.3347C23.9987 22.2481 23.996 23.5827 23.8613 24.5907C23.7293 25.5694 23.488 26.0867 23.12 26.4561C22.7507 26.8254 22.2333 27.0654 21.2533 27.1974C20.2467 27.3321 18.912 27.3347 16.9987 27.3347H12.9987C11.0853 27.3347 9.74933 27.3321 8.74267 27.1974C7.764 27.0654 7.24667 26.8241 6.87733 26.4561C6.508 26.0867 6.268 25.5694 6.136 24.5894C6.00133 23.5827 5.99867 22.2481 5.99867 20.3347V13.6681C5.99867 11.7547 6.00133 10.4187 6.136 9.41208C6.268 8.43341 6.50933 7.91608 6.87733 7.54675Z" fill="#070D2E"/>
</svg>
