<svg width="30" height="30" viewBox="0 0 30 30" fill="none" xmlns="http://www.w3.org/2000/svg">
<g id="uil:github">
<path id="Vector" d="M15 2.80875C12.0318 2.80868 9.16042 3.86485 6.89971 5.78825C4.639 7.71166 3.13651 10.3768 2.6611 13.3067C2.18569 16.2365 2.76839 19.24 4.30493 21.7796C5.84147 24.3191 8.23156 26.229 11.0475 27.1675C11.6725 27.2775 11.9063 26.9025 11.9063 26.5737C11.9063 26.2775 11.8913 25.2925 11.8913 24.2462C8.75 24.8237 7.9375 23.48 7.6875 22.7775C7.41018 22.0934 6.97042 21.4872 6.40625 21.0112C5.96875 20.7775 5.34375 20.1987 6.39 20.1837C6.78985 20.227 7.17337 20.3661 7.50804 20.5891C7.84272 20.8121 8.11867 21.1126 8.3125 21.465C8.48342 21.7721 8.71325 22.0424 8.98883 22.2606C9.26442 22.4787 9.58033 22.6403 9.91848 22.7361C10.2566 22.8319 10.6104 22.86 10.9594 22.8188C11.3084 22.7777 11.6459 22.6681 11.9525 22.4962C12.0066 21.8605 12.2901 21.266 12.75 20.8237C9.96875 20.5112 7.0625 19.4337 7.0625 14.6525C7.04479 13.41 7.50322 12.2078 8.34375 11.2925C7.96164 10.2128 8.00635 9.02786 8.46875 7.98C8.46875 7.98 9.515 7.6525 11.9063 9.26125C13.9516 8.69868 16.1109 8.69868 18.1563 9.26125C20.5463 7.63625 21.5938 7.98 21.5938 7.98C22.0563 9.02783 22.101 10.2128 21.7188 11.2925C22.5618 12.2062 23.0207 13.4094 23 14.6525C23 19.4487 20.0775 20.5112 17.2975 20.8237C17.5956 21.1262 17.8251 21.4893 17.9705 21.8883C18.1159 22.2873 18.1737 22.7129 18.14 23.1362C18.14 24.8087 18.125 26.1525 18.125 26.5737C18.125 26.9025 18.3588 27.2925 18.9838 27.1675C21.7945 26.2212 24.1775 24.3067 25.7073 21.7659C27.2371 19.2251 27.8142 16.2234 27.3355 13.2965C26.8568 10.3696 25.3535 7.70803 23.094 5.78697C20.8345 3.86591 17.9658 2.81036 15 2.80875Z" fill="#070D2E"/>
</g>
</svg>
