<svg width="31" height="30" viewBox="0 0 31 30" fill="none" xmlns="http://www.w3.org/2000/svg">
<path d="M15.5001 2.80875C12.5319 2.80868 9.66048 3.86485 7.39977 5.78825C5.13906 7.71166 3.63657 10.3768 3.16116 13.3067C2.68575 16.2365 3.26845 19.24 4.80499 21.7796C6.34153 24.3191 8.73162 26.229 11.5476 27.1675C12.1726 27.2775 12.4063 26.9025 12.4063 26.5737C12.4063 26.2775 12.3913 25.2925 12.3913 24.2462C9.25006 24.8237 8.43756 23.48 8.18756 22.7775C7.91024 22.0934 7.47048 21.4872 6.90631 21.0112C6.46881 20.7775 5.84381 20.1987 6.89006 20.1837C7.28991 20.227 7.67343 20.3661 8.00811 20.5891C8.34278 20.8121 8.61873 21.1126 8.81256 21.465C8.98348 21.7721 9.21331 22.0424 9.48889 22.2606C9.76448 22.4787 10.0804 22.6403 10.4185 22.7361C10.7567 22.8319 11.1104 22.86 11.4594 22.8188C11.8085 22.7777 12.146 22.6681 12.4526 22.4962C12.5067 21.8605 12.7901 21.266 13.2501 20.8237C10.4688 20.5112 7.56256 19.4337 7.56256 14.6525C7.54485 13.41 8.00328 12.2078 8.84381 11.2925C8.4617 10.2128 8.50641 9.02786 8.96881 7.98C8.96881 7.98 10.0151 7.6525 12.4063 9.26125C14.4517 8.69868 16.611 8.69868 18.6563 9.26125C21.0463 7.63625 22.0938 7.98 22.0938 7.98C22.5563 9.02783 22.6011 10.2128 22.2188 11.2925C23.0619 12.2062 23.5207 13.4094 23.5001 14.6525C23.5001 19.4487 20.5776 20.5112 17.7976 20.8237C18.0957 21.1262 18.3252 21.4893 18.4706 21.8883C18.6159 22.2873 18.6737 22.7129 18.6401 23.1362C18.6401 24.8087 18.6251 26.1525 18.6251 26.5737C18.6251 26.9025 18.8588 27.2925 19.4838 27.1675C22.2946 26.2212 24.6775 24.3067 26.2073 21.7659C27.7372 19.2251 28.3142 16.2234 27.8355 13.2965C27.3569 10.3696 25.8536 7.70803 23.5941 5.78697C21.3345 3.86591 18.4659 2.81036 15.5001 2.80875Z" fill="#DD710E"/>
</svg>
