<svg width="436" height="276" viewBox="0 0 436 276" fill="none" xmlns="http://www.w3.org/2000/svg">
<rect width="436" height="276" rx="31" fill="#F18827"/>
<path d="M16.9531 106V33.2727H68.0895V49.1818H36.6974V61.6818H64.9645V77.5909H36.6974V106H16.9531ZM75.3516 106V33.2727H106.744C112.141 33.2727 116.864 34.2552 120.913 36.2202C124.961 38.1851 128.11 41.0142 130.359 44.7074C132.608 48.4006 133.732 52.8276 133.732 57.9886C133.732 63.197 132.572 67.5885 130.252 71.1634C127.956 74.7382 124.724 77.437 120.558 79.2599C116.415 81.0829 111.573 81.9943 106.033 81.9943H87.2834V66.6534H102.056C104.376 66.6534 106.353 66.3693 107.987 65.8011C109.644 65.2093 110.91 64.2741 111.786 62.9957C112.686 61.7173 113.136 60.0483 113.136 57.9886C113.136 55.9053 112.686 54.2126 111.786 52.9105C110.91 51.5848 109.644 50.6141 107.987 49.9986C106.353 49.3594 104.376 49.0398 102.056 49.0398H95.0959V106H75.3516ZM117.965 72.6193L136.147 106H114.698L96.9425 72.6193H117.965ZM142.148 106V33.2727H194.563V49.1818H161.893V61.6818H191.864V77.5909H161.893V90.0909H194.421V106H142.148ZM232.338 106H204.355V33.2727H232.054C239.535 33.2727 245.998 34.7287 251.444 37.6406C256.912 40.5289 261.126 44.6955 264.086 50.1406C267.069 55.562 268.56 62.0606 268.56 69.6364C268.56 77.2121 267.08 83.7225 264.121 89.1676C261.162 94.589 256.971 98.7557 251.55 101.668C246.129 104.556 239.725 106 232.338 106ZM224.1 89.2386H231.628C235.227 89.2386 238.292 88.6586 240.826 87.4986C243.382 86.3385 245.324 84.3381 246.65 81.4972C247.999 78.6562 248.674 74.7027 248.674 69.6364C248.674 64.5701 247.987 60.6165 246.614 57.7756C245.265 54.9347 243.276 52.9342 240.648 51.7741C238.044 50.6141 234.848 50.0341 231.06 50.0341H224.1V89.2386ZM305.678 106H277.695V33.2727H305.394C312.875 33.2727 319.338 34.7287 324.783 37.6406C330.252 40.5289 334.466 44.6955 337.425 50.1406C340.408 55.562 341.9 62.0606 341.9 69.6364C341.9 77.2121 340.42 83.7225 337.461 89.1676C334.502 94.589 330.311 98.7557 324.89 101.668C319.469 104.556 313.065 106 305.678 106ZM297.44 89.2386H304.968C308.567 89.2386 311.632 88.6586 314.165 87.4986C316.722 86.3385 318.664 84.3381 319.989 81.4972C321.339 78.6562 322.013 74.7027 322.013 69.6364C322.013 64.5701 321.327 60.6165 319.954 57.7756C318.604 54.9347 316.616 52.9342 313.988 51.7741C311.384 50.6141 308.188 50.0341 304.4 50.0341H297.44V89.2386ZM342.974 33.2727H364.991L379.196 62.8182H379.764L393.968 33.2727H415.985L389.281 83.1307V106H369.679V83.1307L342.974 33.2727Z" fill="#070D2E"/>
<path d="M16.75 208V114.909H56.9318C63.8409 114.909 69.8864 116.167 75.0682 118.682C80.25 121.197 84.2803 124.818 87.1591 129.545C90.0379 134.273 91.4773 139.939 91.4773 146.545C91.4773 153.212 89.9924 158.833 87.0227 163.409C84.0833 167.985 79.947 171.439 74.6136 173.773C69.3106 176.106 63.1136 177.273 56.0227 177.273H32.0227V157.636H50.9318C53.9015 157.636 56.4318 157.273 58.5227 156.545C60.6439 155.788 62.2652 154.591 63.3864 152.955C64.5379 151.318 65.1136 149.182 65.1136 146.545C65.1136 143.879 64.5379 141.712 63.3864 140.045C62.2652 138.348 60.6439 137.106 58.5227 136.318C56.4318 135.5 53.9015 135.091 50.9318 135.091H42.0227V208H16.75ZM71.2955 165.273L94.5682 208H67.1136L44.3864 165.273H71.2955ZM192.432 161.455C192.432 171.818 190.417 180.561 186.386 187.682C182.356 194.773 176.917 200.152 170.068 203.818C163.22 207.455 155.583 209.273 147.159 209.273C138.674 209.273 131.008 207.439 124.159 203.773C117.341 200.076 111.917 194.682 107.886 187.591C103.886 180.47 101.886 171.758 101.886 161.455C101.886 151.091 103.886 142.364 107.886 135.273C111.917 128.152 117.341 122.773 124.159 119.136C131.008 115.47 138.674 113.636 147.159 113.636C155.583 113.636 163.22 115.47 170.068 119.136C176.917 122.773 182.356 128.152 186.386 135.273C190.417 142.364 192.432 151.091 192.432 161.455ZM166.432 161.455C166.432 155.879 165.689 151.182 164.205 147.364C162.75 143.515 160.583 140.606 157.705 138.636C154.856 136.636 151.341 135.636 147.159 135.636C142.977 135.636 139.447 136.636 136.568 138.636C133.72 140.606 131.553 143.515 130.068 147.364C128.614 151.182 127.886 155.879 127.886 161.455C127.886 167.03 128.614 171.742 130.068 175.591C131.553 179.409 133.72 182.318 136.568 184.318C139.447 186.288 142.977 187.273 147.159 187.273C151.341 187.273 154.856 186.288 157.705 184.318C160.583 182.318 162.75 179.409 164.205 175.591C165.689 171.742 166.432 167.03 166.432 161.455ZM204.125 114.909H235.58L257.216 167.636H258.307L279.943 114.909H311.398V208H286.67V154.182H285.943L265.216 207.273H250.307L229.58 153.818H228.852V208H204.125V114.909ZM413.557 161.455C413.557 171.818 411.542 180.561 407.511 187.682C403.481 194.773 398.042 200.152 391.193 203.818C384.345 207.455 376.708 209.273 368.284 209.273C359.799 209.273 352.133 207.439 345.284 203.773C338.466 200.076 333.042 194.682 329.011 187.591C325.011 180.47 323.011 171.758 323.011 161.455C323.011 151.091 325.011 142.364 329.011 135.273C333.042 128.152 338.466 122.773 345.284 119.136C352.133 115.47 359.799 113.636 368.284 113.636C376.708 113.636 384.345 115.47 391.193 119.136C398.042 122.773 403.481 128.152 407.511 135.273C411.542 142.364 413.557 151.091 413.557 161.455ZM387.557 161.455C387.557 155.879 386.814 151.182 385.33 147.364C383.875 143.515 381.708 140.606 378.83 138.636C375.981 136.636 372.466 135.636 368.284 135.636C364.102 135.636 360.572 136.636 357.693 138.636C354.845 140.606 352.678 143.515 351.193 147.364C349.739 151.182 349.011 155.879 349.011 161.455C349.011 167.03 349.739 171.742 351.193 175.591C352.678 179.409 354.845 182.318 357.693 184.318C360.572 186.288 364.102 187.273 368.284 187.273C372.466 187.273 375.981 186.288 378.83 184.318C381.708 182.318 383.875 179.409 385.33 175.591C386.814 171.742 387.557 167.03 387.557 161.455Z" fill="#070D2E"/>
<path d="M188.031 259H179.508V229.909H188.542C191.317 229.909 193.689 230.487 195.659 231.642C197.638 232.797 199.153 234.455 200.204 236.614C201.255 238.773 201.781 241.363 201.781 244.384C201.781 247.433 201.241 250.051 200.162 252.239C199.092 254.417 197.529 256.088 195.474 257.253C193.429 258.418 190.948 259 188.031 259ZM182.164 256.614H187.875C190.375 256.614 192.467 256.121 194.153 255.136C195.839 254.152 197.103 252.745 197.946 250.918C198.788 249.09 199.21 246.912 199.21 244.384C199.2 241.874 198.784 239.715 197.96 237.906C197.145 236.098 195.933 234.71 194.324 233.744C192.723 232.778 190.744 232.295 188.386 232.295H182.164V256.614ZM208.219 259V229.909H225.094V232.295H210.875V243.247H224.199V245.634H210.875V256.614H225.378V259H208.219ZM232.012 229.909L241.103 255.548H241.358L250.449 229.909H253.233L242.651 259H239.81L229.228 229.909H232.012Z" fill="#070D2E"/>
<line x1="18" y1="243" x2="167" y2="243" stroke="#070D2E" stroke-width="2"/>
<line x1="262" y1="243" x2="411" y2="243" stroke="#070D2E" stroke-width="2"/>
</svg>
